<svg width="50" height="50" viewBox="0 0 50 50" xmlns="http://www.w3.org/2000/svg">
    <defs>
        <linearGradient id="grad1" x1="0%" y1="0%" x2="0%" y2="100%">
            <stop offset="0%" style="stop-color:#8B4513;stop-opacity:1" />
            <stop offset="100%" style="stop-color:#5D2906;stop-opacity:1" />
        </linearGradient>
    </defs>
    <rect width="50" height="50" fill="url(#grad1)" />
    <!-- Bricks pattern -->
    <rect x="0" y="0" width="23" height="10" fill="#A0522D" rx="2" />
    <rect x="25" y="0" width="23" height="10" fill="#A0522D" rx="2" />
    
    <rect x="0" y="12" width="10" height="10" fill="#A0522D" rx="2" />
    <rect x="12" y="12" width="23" height="10" fill="#A0522D" rx="2" />
    <rect x="37" y="12" width="13" height="10" fill="#A0522D" rx="2" />
    
    <rect x="0" y="24" width="23" height="10" fill="#A0522D" rx="2" />
    <rect x="25" y="24" width="23" height="10" fill="#A0522D" rx="2" />
    
    <rect x="0" y="36" width="10" height="10" fill="#A0522D" rx="2" />
    <rect x="12" y="36" width="23" height="10" fill="#A0522D" rx="2" />
    <rect x="37" y="36" width="13" height="10" fill="#A0522D" rx="2" />
    
    <!-- Top grass trim -->
    <rect x="0" y="0" width="50" height="8" fill="#228B22" />
    <path d="M0 8 L5 12 L10 8 L15 12 L20 8 L25 12 L30 8 L35 12 L40 8 L45 12 L50 8 V0 H0 Z" fill="#228B22" />
</svg>
